# xmcd
#
# Track frame offsets:
#	150
#	14415
#	27550
#	38668
#	51529
#	63759
#	78728
#	94917
#	105678
#	118279
#	129912
#	142640
#	154425
#	167335
#	179442
#	192113
#	204805
#	219236
#	230224
#	248040
#	257145
#	268813
#	281555
#
# Disc length: 4111
#
# Revision: 2
# Processed by: cddbd v1.5.1PL0 Copyright (c) Steve Scherf et al.
# Submitted via: CDex 1.51
# Normalized: r0:TSWAP
#
DISCID=4b100d17
DTITLE=Various Jazz - Jazz and Latin American Songs
DYEAR=2003
DGENRE=Jazz
TTITLE0=Louis Armstrong - Kiss of fire 1952
TTITLE1=Harry James - Brasil 1945
TTITLE2=Django Reinhardt - Brasil 1953
TTITLE3=Tommy Dorsey - Tico-Tico 1946
TTITLE4=Gene Krupa - Green eyes 1941
TTITLE5=Nappy Lamare - Mama Inez 1947
TTITLE6=Louis Armstrong - The peanut vendor 1930
TTITLE7=John Kirby - The peanut vendor 1943
TTITLE8=George Shearing - Poinciana 1948
TTITLE9=Frank Trumbauer - Taboo 1938
TTITLE10=Charlie Shavers - Amor 1944
TTITLE11=Oscar Aleman - Besame mucho 1943
TTITLE12=Nat King Cole - Besame mucho 1944
TTITLE13=Louis Armstrong - La Cucaracha 1935
TTITLE14=Charlie parker - la Cucaracha 1952
TTITLE15=Charlie Parker - Estrellita 1952
TTITLE16=Duke Ellington - Frenesi 1940
TTITLE17=Fats Waller - Frenesi 1940
TTITLE18=Ahmad Jamal - Perfidia 1951
TTITLE19=Tommy Dorsey - Perfidia 1941
TTITLE20=Slim and Slam - Ti-Pi-Tin 1938
TTITLE21=Sarah Vaughan - What a difference a day made 1947
TTITLE22=Claude Thornhill - La Paloma 1946
EXTD=YEAR: 2003
EXTT0=
EXTT1=
EXTT2=
EXTT3=
EXTT4=
EXTT5=
EXTT6=
EXTT7=
EXTT8=
EXTT9=
EXTT10=
EXTT11=
EXTT12=
EXTT13=
EXTT14=
EXTT15=
EXTT16=
EXTT17=
EXTT18=
EXTT19=
EXTT20=
EXTT21=
EXTT22=
PLAYORDER=
